<svg id="Capa_1" enable-background="new 0 0 512 512" height="512" viewBox="0 0 512 512" width="512" xmlns="http://www.w3.org/2000/svg"><g><circle cx="256" cy="256" fill="#7883ee" r="256"/><path d="m505.224 197.283-109.223-109.223-137.676 137.677-125.001-125-17.324 17.324 155 155-125 125 113.89 113.89c139.589-2.082 252.11-115.867 252.11-255.951 0-20.206-2.35-39.861-6.776-58.717z" fill="#4652ca"/><path d="m146 368.06v30l110 61.882 8.059-51.294-8.059-40.588z" fill="#fff"/><path d="m366 368.06h-110v91.882l110-61.882z" fill="#e9edf5"/><path d="m146 112.648v259.863l110 57.431 12.294-158.647-12.294-158.647z" fill="#fcc515"/><path d="m366 112.648h-110v317.294l110-57.431z" fill="#fa0"/><path d="m166 245.236c0 49.706 40.294 90 90 90l7.353-85-7.353-95c-49.706 0-90 40.295-90 90z" fill="#fff"/><path d="m346 245.236c0-49.706-40.294-90-90-90v180c49.706 0 90-40.294 90-90z" fill="#e9edf5"/><path d="m255.421 290.47c-.015 0-.031 0-.046 0-4.845-.006-9.063-1.211-12.891-3.68-7.757-5.005-10.922-10.02-10.922-17.309v-82.799h-22.541v82.799c0 15.295 6.976 27.231 21.327 36.49 7.449 4.805 15.859 7.248 24.995 7.261h.078c.194 0 .384-.014.578-.016l3.872-10.504-3.871-12.258c-.194.004-.384.016-.579.016z" fill="#5ef8db"/><path d="m302.979 269.405v-82.723h-22.541v82.723c0 5.429-1.497 12.422-13.169 18.358-3.373 1.715-7.163 2.613-11.269 2.691v22.761c7.666-.083 14.868-1.797 21.407-5.123 21.136-10.747 25.572-26.971 25.572-38.687z" fill="#1ee2bd"/><path d="m116 88.06v30h140l7.051-15-7.051-15z" fill="#fff"/><path d="m256 88.06h140v30h-140z" fill="#e9edf5"/></g></svg>